Coordinates																	
version=1																	
nRows=37																	
nColumns=18																	
inDegrees=yes																	
																	
"Units are S.I. units (second, meters, Newtons, ...)"																	
"If the header above contains a line with 'inDegrees', this indicates whether rotational values are in degrees (yes) or radians (no)."																	
																	
endheader																	
time	/jointset/hip_l/hip_flexion_l/value	/jointset/hip_l/hip_adduction_l/value	/jointset/hip_l/hip_rotation_l/value	/jointset/hip_r/hip_flexion_r/value	/jointset/hip_r/hip_adduction_r/value	/jointset/hip_r/hip_rotation_r/value	/jointset/knee_l/knee_angle_l/value	/jointset/knee_r/knee_angle_r/value	/jointset/ankle_l/ankle_angle_l/value	/jointset/ankle_r/ankle_angle_r/value	/jointset/subtalar_l/subtalar_angle_l/value	/jointset/subtalar_r/subtalar_angle_r/value	/jointset/mtp_l/mtp_angle_l/value	/jointset/mtp_r/mtp_angle_r/value	/jointset/back/lumbar_extension/value	/jointset/back/lumbar_bending/value	/jointset/back/lumbar_rotation/value
37.51	53.41776113	11.36317988	0.82901356	45.87870625	11.47299587	14.13111094	-9.14621639	-38.3538959	-26.2140863	5.39539685	8.36747888	-24.20934048	23.69290118	3.81931336	-29.60598541	40.96086639	27.4878699
37.52	61.61929639	16.87735689	-8.53661974	59.33632443	10.75382594	3.18248446	-101.7832796	-61.1702562	-34.51581632	-48.06366332	5.76429556	-32.39526306	-5.96092345	42.46162819	12.16340279	31.7792953	-42.20026519
37.53	6.2422529	-13.65950053	-0.28578439	29.33069773	2.77593336	13.37306239	-77.47806848	-113.0780697	10.00124359	-25.4511845	25.76585606	-31.89672047	-1.97644997	2.05878239	-37.62282756	-9.15700396	-3.70378906
37.54	60.95163803	8.61043506	-18.17564682	51.27310163	13.53635913	-6.00646357	-19.62956529	6.10195795	-27.00141859	30.4754263	-18.79779586	-3.28476506	13.2832775	17.5942694	4.70626069	-41.09048511	-14.69290892
37.55	29.53556503	9.4636494	11.08871475	12.63819348	4.05061385	-6.63720693	-83.24451648	-116.6522558	-23.06372743	-18.2768466	-26.10574479	7.67685754	0.96333997	3.85058068	-44.0907696	-9.92622352	19.22271494
37.56	-13.93847712	17.64871057	5.61059161	4.68705562	-15.20649001	13.09901294	-81.57291879	-119.9807147	-16.78804399	39.91350167	-11.92862201	-25.00600717	37.92119172	57.53357302	-12.2197615	-43.51735821	12.0642664
37.57	-4.38979806	15.66128085	23.3845621	60.56486937	8.10982367	-4.98781577	-43.06313125	-113.668215	-35.92520746	-25.90667933	-19.26603156	33.83753939	20.87393161	23.55528651	14.63741814	-30.56069757	-6.77393363
37.58	-18.75163347	16.18042103	-1.76678547	42.33404732	2.35576518	-12.06428327	-60.7716916	-65.61170528	24.03891815	27.88610833	31.25425587	-25.17599514	-4.15861296	12.11001458	18.0167467	-40.88338917	-15.18723457
37.59	-29.30420495	-18.18430599	14.79432603	-2.01625329	-14.96273361	7.41124856	-44.10002788	-16.5763662	-16.03303769	-26.14462675	-34.1686258	21.71533329	30.68803215	20.61556705	29.74979023	-16.23938823	-17.4277055
37.6	62.16188056	-0.68347924	29.88083669	-16.280214	-18.07228139	2.12429994	-14.06851689	-102.2563028	-31.49879067	19.54918353	-7.32147488	26.67536567	56.29675391	40.18624896	12.60029941	32.72626286	-20.82916067
37.61	54.93028162	-2.68865631	-12.36589596	53.5089726	-17.22061745	4.41426696	-50.60731072	-50.68156335	-48.71016418	-28.45674433	15.01481075	-14.72946928	31.89923843	10.72935388	-10.89356832	30.75879573	-36.86139716
37.62	-24.00174426	-6.15372378	-7.7236828	-13.11668083	1.05332144	27.66944173	-77.04599789	-5.661742	-3.61278932	-28.55672392	25.60644659	27.35755206	22.24978335	34.41380511	11.85816741	29.78303571	13.88502214
37.63	-12.95783379	-13.08550108	29.94465937	12.42608103	2.55235897	-12.65822149	-56.5435595	-15.5716208	-30.01670494	-48.91926941	-13.41497441	17.98153152	51.97210038	4.15493236	29.05416679	16.34765444	10.91825789
37.64	34.58935644	2.68506074	-3.89626922	17.331956	-19.02139072	21.31430012	-74.24817479	-75.32712455	24.28440582	-37.58290535	-18.03883981	-29.06579364	56.62436355	14.12887371	29.6295787	-3.2197163	-21.53844316
37.65	28.29712597	5.90032531	29.63589003	57.04752361	1.76857789	-19.97617993	-29.3563433	-110.7489958	-37.72927291	-42.05891474	-5.57028981	-31.48829103	-3.9430366	35.70006208	39.78011062	-10.59565683	-20.96811044
37.66	52.5994019	-4.43816538	-17.35948049	7.26776329	6.26428911	17.41071373	-77.45624318	-27.39406545	24.44241522	12.5922379	29.86121085	-33.15446398	19.42587504	12.2107071	-41.47121731	13.86620794	-40.83526744
37.67	5.18493974	15.79821458	-14.05778048	18.04782365	2.96263286	-15.65660474	-15.16593474	-44.72037019	10.26821656	3.17031762	-21.43073785	15.02285583	38.92466121	17.49322043	-34.30980561	-3.03006414	5.07796296
37.68	44.70086657	17.05386412	1.92451429	58.62107973	19.8892241	4.42885141	-100.2913619	-82.37977134	9.75123452	49.46451758	22.208648	29.3101005	4.49307725	47.23870937	-23.02892556	-24.75578184	-1.4198324
37.69	25.49341326	5.07119233	15.54529323	33.33733553	19.80691065	16.68762474	-44.00103081	-9.55502552	25.11973225	11.01977082	-7.75547273	19.23939748	18.20769613	1.66053234	-20.86414223	0.23901932	1.80593915
37.7	-26.19072667	8.83176663	-9.36577037	-8.14084549	-5.30943013	-13.13394696	-109.8113501	-48.92505221	-15.22254254	-49.73327774	-10.89848825	2.33247733	47.83451208	43.06745638	4.29718025	-2.93194213	-34.90600531
37.71	-18.58175049	19.69325735	34.91803884	-26.94403753	-5.33787077	3.81449287	-97.99545692	-14.61065285	-46.24031812	-17.710752	20.67062859	-5.18041463	33.15797142	49.71079983	-30.54819751	15.7946596	11.69930745
37.72	-6.46000322	19.19205211	-9.37684301	42.28786762	18.57002911	18.67104871	-89.18355332	-28.84054858	-19.61780358	28.66008837	34.33630293	-26.31217482	0.62682232	53.71651754	-27.40565325	5.46601196	-21.201868
37.73	-6.78767688	-0.81917757	22.35392599	-5.88940019	-2.25685218	15.10928831	4.25128465	-108.4234904	-31.10394861	-34.1578106	-16.180147	19.00719273	45.3199256	37.24186635	32.27232071	23.69564138	24.80712757
37.74	-2.40004334	5.86697153	-17.74248508	42.16437969	9.90430294	28.49268152	-76.6628707	-110.4214922	10.73088102	-43.95164735	-12.35438297	14.52421185	55.0152887	33.97487216	-32.66271531	-4.21814276	8.37792016
37.75	-9.84422589	-8.88185264	-2.02011485	56.72378835	-11.63308114	20.56506122	7.98012557	-98.57957413	-6.13998994	48.62053917	-29.03216854	18.19719177	42.79184017	47.50325998	19.86865587	39.10296263	-2.7176772
37.76	-1.37529002	-5.27146234	-6.6178789	16.20212204	-16.21099301	2.24149661	-52.15575982	-66.86671324	-34.36648498	-25.18534074	-18.58944993	-10.84558688	33.12154531	43.87715224	-6.71755784	8.99218629	-27.60468257
37.77	27.42496874	-11.4954121	-4.35379772	43.0549858	-15.15648325	-17.0609446	-88.81428598	-112.4971748	21.6599763	36.53109178	32.74523629	11.7193456	13.04743377	20.85487659	10.98112784	25.91738491	31.22257482
37.78	-6.84523164	-15.36797197	16.7613317	63.8826126	-17.40049485	-18.72179136	1.18742102	-112.5074457	41.62079114	-29.2629627	-11.20366999	33.31463847	-8.46040449	56.13522659	-42.43151073	-10.40796425	-5.9575558
37.79	58.0367366	-12.93423141	-19.77693631	-20.38119624	6.49434334	-7.95812418	-0.15957953	-95.62061149	-21.17591788	29.70248053	-17.88531316	-18.17755521	56.7986486	16.70498805	43.21749549	-8.79208996	-27.77162737
37.8	42.08257199	19.46323712	26.9833697	-18.01937892	-18.50602656	-14.88193442	-27.83809777	-100.727964	-48.65910572	31.9979529	25.6948488	-31.46312969	37.86496709	22.19960122	12.84780907	0.15394858	-6.86013714
37.81	24.65792289	12.56031699	7.61125957	68.11544433	17.1478542	11.04861397	-11.14245289	-33.00392482	11.11013348	24.57202523	-9.89269679	-26.60113755	-9.63210785	12.53559929	8.53216469	-12.62494506	-15.36956302
37.82	48.02384453	-7.07769752	16.51462004	67.54376562	1.56488504	-11.01701778	-71.17263562	-70.58226054	17.68571717	-21.21573521	-25.82074901	-31.86505902	4.11320405	-6.93974549	27.27335889	29.69570948	22.55865342
37.83	-3.3302159	2.99345113	31.04608386	-22.2631631	-10.67335123	-7.1138609	-94.73872624	-55.21974585	-33.92717178	-19.42924292	4.25795117	-3.43818317	31.69804695	11.79285624	42.61334846	-31.32861781	31.74874375
37.84	50.51701841	5.96875559	24.26096001	37.69959984	14.75849062	6.01342136	-28.79945206	-13.35717449	-28.96895023	-7.29281966	0.23991671	9.02751334	16.09002877	38.45652488	32.53777172	40.919212	41.17011114
37.85	61.28826442	18.61214642	-15.47937322	18.57844444	1.47368415	31.09262608	-39.26633976	-56.6244604	14.62070424	-43.10023005	-28.57866559	-22.83954874	17.37729692	4.42276161	-13.36398389	44.05352263	-10.18563898
37.86	43.43646258	5.75412125	-1.73485635	54.95492986	-14.44469462	11.97493183	-57.52852934	-91.6083221	-22.81106571	41.12355212	10.74722277	-18.16423988	7.50257319	10.90965439	12.25481095	39.09453801	-32.50286087
37.87	15.25929855	8.79960679	-8.84750213	-17.20607112	-8.64978009	14.1975131	-92.69092771	-107.2341422	21.76165127	40.57031324	-2.53950839	-31.3598655	40.25100799	-8.74585138	28.20862601	42.43179733	20.55837193
